<svg xmlns="http://www.w3.org/2000/svg" xmlns:xlink="http://www.w3.org/1999/xlink" width="115.29" height="217.5" viewBox="0 0 115.29 217.5"><defs><linearGradient id="8a59f09b-0f25-4472-bf1e-f21b57a389cd" x1="57.64" y1="94.55" x2="57.64" y2="13.2" gradientUnits="userSpaceOnUse"><stop offset="0" stop-color="#ccc"/><stop offset="0.25" stop-color="#c2c2c2"/><stop offset="0.67" stop-color="#a6a6a6"/><stop offset="0.83" stop-color="#999"/></linearGradient><clipPath id="989b382a-81cc-4687-ae7c-6d6d6df6b801"><path d="M71.37,124.1v3a6.75,6.75,0,0,1-6.75-6.75h3A3.76,3.76,0,0,0,71.37,124.1Z" fill="none"/></clipPath><clipPath id="a9b30a50-afef-41c6-a855-aaaeb4826a4d"><path d="M100.17,103.1v-3a6.75,6.75,0,0,1,6.75,6.75A20.31,20.31,0,0,1,86.67,127.1v-3a17.31,17.31,0,0,0,17.25-17.25A3.74,3.74,0,0,0,100.17,103.1Z" fill="none"/></clipPath><clipPath id="39c96001-98fd-48f1-9df5-540ce3c6e257"><path d="M67.62,113.6h-3c0-13.5,6.08-13.5,13.5-13.5v3C71.6,103.14,67.74,103,67.62,113.6Z" fill="none"/></clipPath><clipPath id="59fdd3f7-469d-400c-a0c0-ec6e53147db1"><path d="M49.74,120.35h3A6.75,6.75,0,0,1,46,127.1v-3A3.75,3.75,0,0,0,49.74,120.35Z" fill="none"/></clipPath><clipPath id="926b262e-b5ae-4952-8c7b-23e2795c6a15"><path d="M39.24,103.1v-3c7.43,0,13.5,0,13.5,13.5h-3C49.63,103,45.77,103.14,39.24,103.1Z" fill="none"/></clipPath><clipPath id="92c21625-df0b-403a-9304-1bdc1ed3cf9b"><path d="M30.69,124.1v3a20.31,20.31,0,0,1-20.25-20.25,6.75,6.75,0,0,1,6.75-6.75v3a3.74,3.74,0,0,0-3.75,3.75A17.32,17.32,0,0,0,30.69,124.1Z" fill="none"/></clipPath><linearGradient id="47822125-825b-4f49-8cd5-41bb14f913f5" x1="11.72" y1="48.08" x2="11.72" y2="48.08" gradientUnits="userSpaceOnUse"><stop offset="0" stop-color="#dbdbdb"/><stop offset="0.2" stop-color="#d1d1d1"/><stop offset="0.55" stop-color="#b5b5b5"/><stop offset="0.83" stop-color="#999"/></linearGradient></defs><title>glucose-meter2</title><g style="isolation:isolate"><g id="19acd80c-8e6a-477e-9285-45c28f13e42a" data-name="Layer 2"><g id="4ca206f8-ccf6-448c-b126-5f5d1394d67d" data-name="meter"><path d="M74.57,141.77H39.4A39,39,0,0,1,.5,102.87V9.43A9,9,0,0,1,9.43.5h96.42a9,9,0,0,1,8.94,8.93v92.12A40.34,40.34,0,0,1,74.57,141.77Z" fill="#036"/><path d="M74.57,141.77H39.4A39,39,0,0,1,.5,102.87V9.43A9,9,0,0,1,9.43.5h96.42a9,9,0,0,1,8.94,8.93v92.12A40.34,40.34,0,0,1,74.57,141.77Z" fill="none" stroke="#336" stroke-miterlimit="10"/><path id="0d4546aa-ca2c-4c2a-b02d-c778d524150c" data-name="screen" d="M11.13,13.2h93a0,0,0,0,1,0,0V82.55a12,12,0,0,1-12,12h-69a12,12,0,0,1-12-12V13.2A0,0,0,0,1,11.13,13.2Z" stroke="#666" stroke-miterlimit="10" stroke-width="0.5" fill="url(#8a59f09b-0f25-4472-bf1e-f21b57a389cd)"/><g id="0296a900-4bc9-44bc-bcb7-274ce26e40ad" data-name="top-screen-shadow"><image width="105" height="13" transform="translate(5.22 7.5)" opacity="0.9" xlink:href="glucose-meter21.png" style="mix-blend-mode:multiply"/><line x1="103.55" y1="13.86" x2="11.44" y2="13.86" fill="none" stroke="#999" stroke-miterlimit="10" stroke-width="0.25"/></g><g id="efb8aba6-e797-45ff-8b29-3daf8aa1c7aa" data-name="right-button-shadow"><g style="isolation:isolate"><rect x="78.12" y="103.1" width="22.05" fill="#1c1c39"/><rect x="71.37" y="124.1" width="15.3" height="3" fill="#2f2f5e"/><g style="isolation:isolate"><g clip-path="url(#989b382a-81cc-4687-ae7c-6d6d6df6b801)"><g style="isolation:isolate"><path d="M71.37,124.1v3l-.42,0,.19-3h.23" fill="#2f2f5e"/><path d="M71.14,124.09l-.19,3-.52,0,.42-3,.29,0" fill="#303060"/><path d="M70.85,124.06l-.42,3a4.71,4.71,0,0,1-.52-.09l.65-2.93.29,0" fill="#313162"/><path d="M70.56,124l-.65,2.93-.51-.14.88-2.87.28.08" fill="#323264"/><path d="M70.28,123.93l-.88,2.87c-.18,0-.36-.12-.53-.18L70,123.83l.3.1" fill="#336"/><path d="M70,123.83l-1.11,2.79-.56-.26,1.36-2.67.31.14" fill="#4b4b78"/><path d="M69.67,123.69l-1.36,2.67a6.67,6.67,0,0,1-.64-.37l1.64-2.51a3.35,3.35,0,0,0,.36.21" fill="#565680"/><path d="M69.31,123.48,67.67,126a6.34,6.34,0,0,1-.91-.71l2-2.2a4.61,4.61,0,0,0,.5.4" fill="#5d5d86"/><path d="M68.81,123.08l-2,2.2a6.84,6.84,0,0,1-1-1.2l2.5-1.66a3.56,3.56,0,0,0,.56.66" fill="#64648b"/><path d="M68.25,122.42l-2.5,1.66a6.15,6.15,0,0,1-.55-1l2.74-1.21a3.81,3.81,0,0,0,.31.56" fill="#5d5d86"/><path d="M67.94,121.86l-2.74,1.21a5.6,5.6,0,0,1-.26-.68l2.86-.91c0,.13.09.26.14.38" fill="#565680"/><path d="M67.8,121.48l-2.86.91a5.69,5.69,0,0,1-.16-.59l2.93-.65.09.33" fill="#4b4b78"/><path d="M67.71,121.15l-2.93.65c0-.19-.07-.37-.1-.56l3-.4a2.87,2.87,0,0,0,0,.31" fill="#336"/><path d="M67.66,120.84l-3,.4c0-.18,0-.36-.05-.55l3-.15a1.53,1.53,0,0,0,0,.3" fill="#323264"/><path d="M67.63,120.54l-3,.15c0-.11,0-.23,0-.34h3c0,.06,0,.12,0,.19" fill="#313162"/></g></g></g><rect x="64.62" y="113.6" width="3" height="6.75" fill="#303060"/><g style="isolation:isolate"><g clip-path="url(#a9b30a50-afef-41c6-a855-aaaeb4826a4d)"><g style="isolation:isolate"><path d="M100.17,103.1v-3a6.45,6.45,0,0,1,1.17.1l-.52,3a3.43,3.43,0,0,0-.65-.05" fill="#20203f"/><path d="M100.82,103.15l.52-3a6.55,6.55,0,0,1,1.86.61l-1.35,2.68a3.57,3.57,0,0,0-1-.34" fill="#1f1f3d"/><path d="M101.85,103.49l1.35-2.68a6.76,6.76,0,0,1,3.42,4l-2.86.89a3.77,3.77,0,0,0-1.91-2.25" fill="#1e1e3b"/><path d="M103.76,105.74l2.86-.89a6.38,6.38,0,0,1,.3,2h-3a3.53,3.53,0,0,0-.16-1.08" fill="#1f1f3d"/><path d="M103.92,106.82h3v0a20.31,20.31,0,0,1-.35,3.76l-2.94-.56a16.93,16.93,0,0,0,.29-3.2v0" fill="#20203f"/><path d="M103.63,110.05l2.94.56a19.69,19.69,0,0,1-.8,3l-2.83-1a18.17,18.17,0,0,0,.69-2.53" fill="#212141"/><path d="M102.94,112.58l2.83,1a19.55,19.55,0,0,1-1.06,2.44L102,114.66a17.4,17.4,0,0,0,.9-2.08" fill="#222243"/><path d="M102,114.66l2.67,1.36a20,20,0,0,1-1.2,2L101,116.4a16.92,16.92,0,0,0,1-1.74" fill="#232345"/><path d="M101,116.4l2.5,1.67a20.55,20.55,0,0,1-1.32,1.75l-2.3-1.92a16.24,16.24,0,0,0,1.12-1.5" fill="#242447"/><path d="M99.89,117.9l2.3,1.92a20,20,0,0,1-1.4,1.51l-2.09-2.15c.42-.41.81-.84,1.19-1.28" fill="#252549"/><path d="M98.7,119.18l2.09,2.15a17.68,17.68,0,0,1-1.45,1.28l-1.88-2.33c.43-.35.84-.72,1.24-1.1" fill="#26264b"/><path d="M97.46,120.28l1.88,2.33a17.88,17.88,0,0,1-1.49,1.1l-1.66-2.5c.44-.29.86-.6,1.27-.93" fill="#27274e"/><path d="M96.19,121.21l1.66,2.5c-.49.33-1,.63-1.52.92L94.9,122q.66-.36,1.29-.78" fill="#282850"/><path d="M94.9,122l1.43,2.64c-.5.27-1,.53-1.54.76l-1.2-2.75c.44-.2.88-.41,1.31-.65" fill="#292952"/><path d="M93.59,122.64l1.2,2.75c-.5.22-1,.42-1.54.61l-1-2.84c.45-.16.89-.33,1.32-.52" fill="#2a2a54"/><path d="M92.27,123.16l1,2.84c-.51.17-1,.33-1.56.46l-.75-2.9c.45-.12.89-.25,1.33-.4" fill="#2b2b56"/><path d="M90.94,123.56l.75,2.9c-.51.13-1,.25-1.56.34l-.51-3c.44-.07.89-.17,1.32-.28" fill="#2c2c58"/><path d="M89.62,123.84l.51,3q-.76.14-1.56.21l-.28-3c.45,0,.89-.1,1.33-.18" fill="#2d2d5a"/><path d="M88.29,124l.28,3c-.51,0-1,.07-1.56.08l-.05-3c.44,0,.89,0,1.33-.07" fill="#2e2e5c"/><path d="M87,124.09l.05,3h-.34v-3H87" fill="#2f2f5e"/></g></g></g><g style="isolation:isolate"><g clip-path="url(#39c96001-98fd-48f1-9df5-540ce3c6e257)"><g style="isolation:isolate"><path d="M67.62,113.6h-3c0-.39,0-.76,0-1.12l3,.24c0,.28,0,.57,0,.88" fill="#313162"/><path d="M67.64,112.72l-3-.24c0-1,.09-2,.19-2.83l3,.85q-.11,1-.15,2.22" fill="#303060"/><path d="M67.79,110.5l-3-.85c.08-.65.18-1.27.3-1.83L68,109.06c-.08.45-.15.92-.21,1.44" fill="#2f2f5e"/><path d="M68,109.06l-2.87-1.24c.1-.48.21-.93.33-1.34L68.24,108q-.13.49-.24,1" fill="#2e2e5c"/><path d="M68.24,108l-2.78-1.53c.11-.37.23-.71.36-1l2.67,1.77c-.09.25-.17.52-.25.8" fill="#2d2d5a"/><path d="M68.49,107.21l-2.67-1.77c.12-.29.24-.57.37-.83l2.56,2c-.09.21-.18.42-.26.65" fill="#2c2c58"/><path d="M68.75,106.56l-2.56-2c.12-.24.25-.46.38-.68L69,106c-.1.16-.18.34-.27.52" fill="#2b2b56"/><path d="M69,106l-2.45-2.11.39-.57,2.34,2.23A4.92,4.92,0,0,0,69,106" fill="#2a2a54"/><path d="M69.3,105.59,67,103.36c.14-.18.27-.35.41-.5l2.22,2.34-.29.39" fill="#292952"/><path d="M69.59,105.2l-2.22-2.34a6.25,6.25,0,0,1,.44-.45l2.09,2.45c-.11.11-.21.22-.31.34" fill="#282850"/><path d="M69.9,104.86l-2.09-2.45c.15-.14.31-.27.47-.4l2,2.54c-.12.1-.24.2-.35.31" fill="#27274e"/><path d="M70.25,104.55l-2-2.54.52-.37,1.83,2.63c-.13.09-.26.18-.38.28" fill="#26264b"/><path d="M70.63,104.27l-1.83-2.63c.19-.12.39-.23.59-.33L71.06,104a3.7,3.7,0,0,0-.43.25" fill="#252549"/><path d="M71.06,104l-1.67-2.71a7.89,7.89,0,0,1,.72-.33l1.49,2.79c-.18.07-.36.16-.54.25" fill="#242447"/><path d="M71.6,103.77,70.11,101a9.21,9.21,0,0,1,.93-.31l1.27,2.87a5.36,5.36,0,0,0-.71.23" fill="#232345"/><path d="M72.31,103.54,71,100.67a12.63,12.63,0,0,1,1.44-.31l1,3a7.65,7.65,0,0,0-1.12.23" fill="#222243"/><path d="M73.43,103.31l-1-3a27.88,27.88,0,0,1,3.64-.25l.28,3a22.39,22.39,0,0,0-3,.2" fill="#212141"/><path d="M76.4,103.11l-.28-3h2v3H76.4" fill="#20203f"/></g></g></g><rect x="78.12" y="100.1" width="22.05" height="3" fill="#232346"/><rect x="78.12" y="100.1" width="22.05" fill="#1c1c39"/><rect x="78.12" y="103.1" width="22.05" fill="#1c1c39"/><path d="M100.17,103.1a3.74,3.74,0,0,1,3.75,3.75A17.31,17.31,0,0,1,86.67,124.1H71.37a3.76,3.76,0,0,1-3.75-3.75V113.6c.12-10.63,4-10.46,10.5-10.5Z" fill="#2c2c58"/></g></g><g id="a0ef8066-4c9b-470b-bda2-3c3d63f17288" data-name="left-button-shadow"><g style="isolation:isolate"><rect x="17.19" y="103.1" width="22.05" fill="#1c1c39"/><rect x="30.69" y="124.1" width="15.3" height="3" fill="#2f2f5e"/><g style="isolation:isolate"><g clip-path="url(#59fdd3f7-469d-400c-a0c0-ec6e53147db1)"><g style="isolation:isolate"><path d="M49.74,120.35h3a7.47,7.47,0,0,1-.11,1.26l-3-.56a3.26,3.26,0,0,0,.06-.7" fill="#20203f"/><path d="M49.68,121.05l3,.56a8,8,0,0,1-.27,1l-2.83-1a4.94,4.94,0,0,0,.15-.55" fill="#212141"/><path d="M49.53,121.6l2.83,1a8.41,8.41,0,0,1-.35.82l-2.67-1.37a4.32,4.32,0,0,0,.19-.45" fill="#222243"/><path d="M49.34,122.05,52,123.42c-.12.23-.26.46-.4.68l-2.5-1.67c.08-.12.16-.25.23-.38" fill="#232345"/><path d="M49.11,122.43l2.5,1.67c-.14.2-.28.39-.44.58l-2.3-1.93a2.43,2.43,0,0,0,.24-.32" fill="#242447"/><path d="M48.87,122.75l2.3,1.93c-.15.17-.3.34-.46.5L48.61,123a3.45,3.45,0,0,0,.26-.28" fill="#252549"/><path d="M48.61,123l2.1,2.15q-.24.22-.48.42l-1.89-2.33.27-.24" fill="#26264b"/><path d="M48.34,123.27l1.89,2.33c-.16.13-.33.25-.5.37l-1.66-2.5a2.69,2.69,0,0,0,.27-.2" fill="#27274e"/><path d="M48.07,123.47l1.66,2.5a5.09,5.09,0,0,1-.5.3l-1.44-2.63a2.61,2.61,0,0,0,.28-.17" fill="#282850"/><path d="M47.79,123.64l1.44,2.63c-.17.09-.34.18-.51.25l-1.21-2.74.28-.14" fill="#292952"/><path d="M47.51,123.78l1.21,2.74a4.71,4.71,0,0,1-.52.21l-1-2.84.29-.11" fill="#2a2a54"/><path d="M47.22,123.89l1,2.84a4.44,4.44,0,0,1-.52.15l-.75-2.9.29-.09" fill="#2b2b56"/><path d="M46.93,124l.75,2.9a4.37,4.37,0,0,1-.52.12l-.52-3,.29-.06" fill="#2c2c58"/><path d="M46.64,124l.52,3-.53.07-.28-3,.29,0" fill="#2d2d5a"/><path d="M46.35,124.08l.28,3-.52,0,0-3,.29,0" fill="#2e2e5c"/><path d="M46.06,124.1l0,3H46v-3h.07" fill="#2f2f5e"/></g></g></g><rect x="49.74" y="113.6" width="3" height="6.75" fill="#224"/><g style="isolation:isolate"><g clip-path="url(#926b262e-b5ae-4952-8c7b-23e2795c6a15)"><g style="isolation:isolate"><path d="M39.24,103.1v-3a30.3,30.3,0,0,1,6.65.46l-1.17,2.89a26.53,26.53,0,0,0-5.48-.35" fill="#20203f"/><path d="M44.72,103.45l1.17-2.89c4.08,1,6.85,3.91,6.85,13h-3c-.08-7.15-1.86-9.4-5-10.12" fill="#1f1f3d"/><path d="M49.74,113.57h3v0h-3v0" fill="#20203f"/></g></g></g><rect x="17.19" y="100.1" width="22.05" height="3" fill="#232346"/><rect x="17.19" y="100.1" width="22.05" fill="#1c1c39"/><g style="isolation:isolate"><g clip-path="url(#92c21625-df0b-403a-9304-1bdc1ed3cf9b)"><g style="isolation:isolate"><path d="M30.69,124.1v3c-.41,0-.83,0-1.25,0l.19-3c.35,0,.71,0,1.06,0" fill="#2f2f5e"/><path d="M29.63,124.06l-.19,3c-.52,0-1-.09-1.55-.16l.42-3c.44.06.88.11,1.32.13" fill="#303060"/><path d="M28.31,123.93l-.42,3c-.51-.07-1-.16-1.53-.27L27,123.7c.43.09.87.17,1.31.23" fill="#313162"/><path d="M27,123.7l-.64,2.93c-.53-.12-1.05-.26-1.56-.41l.88-2.87c.43.13.87.25,1.32.35" fill="#323264"/><path d="M25.68,123.35l-.88,2.87c-.54-.17-1.07-.36-1.59-.56l1.11-2.79c.45.18.9.34,1.36.48" fill="#336"/><path d="M24.32,122.87l-1.11,2.79c-.57-.23-1.13-.49-1.68-.77l1.36-2.67c.47.24.95.45,1.43.65" fill="#4b4b78"/><path d="M22.89,122.22l-1.36,2.67a20.6,20.6,0,0,1-1.93-1.12l1.65-2.51a18,18,0,0,0,1.64,1" fill="#565680"/><path d="M21.25,121.26l-1.65,2.51a20.24,20.24,0,0,1-2.72-2.15l2.05-2.19a17.13,17.13,0,0,0,2.32,1.83" fill="#5d5d86"/><path d="M18.93,119.43l-2.05,2.19A20.31,20.31,0,0,1,13.82,118l2.5-1.66a17.51,17.51,0,0,0,2.61,3.08" fill="#64648b"/><path d="M16.32,116.35,13.82,118a19,19,0,0,1-1.66-3l2.74-1.21a17.55,17.55,0,0,0,1.42,2.59" fill="#5d5d86"/><path d="M14.9,113.76,12.16,115a17.88,17.88,0,0,1-.78-2l2.86-.91a16.44,16.44,0,0,0,.66,1.74" fill="#565680"/><path d="M14.24,112l-2.86.91c-.18-.58-.34-1.18-.47-1.78l2.93-.64c.11.51.25,1,.4,1.51" fill="#4b4b78"/><path d="M13.84,110.51l-2.93.64c-.12-.55-.22-1.1-.29-1.66l3-.4c.06.48.15,1,.25,1.42" fill="#336"/><path d="M13.59,109.09l-3,.4q-.1-.8-.15-1.62l3-.15c0,.46.06.92.12,1.37" fill="#323264"/><path d="M13.47,107.72l-3,.15q0-.51,0-1c0-.07,0-.13,0-.2l3,.09s0,.07,0,.11q0,.44,0,.87" fill="#313162"/><path d="M13.45,106.74l-3-.09a4.53,4.53,0,0,1,0-.52l3,.32a2.64,2.64,0,0,0,0,.29" fill="#303060"/><path d="M13.47,106.45l-3-.32c0-.18,0-.35.08-.52l2.95.55a2.54,2.54,0,0,0,0,.29" fill="#2f2f5e"/><path d="M13.51,106.16l-2.95-.55c0-.17.07-.34.11-.51l2.9.78a2.3,2.3,0,0,0-.06.28" fill="#2e2e5c"/><path d="M13.57,105.88l-2.9-.78c.05-.17.1-.34.16-.5l2.83,1a2.29,2.29,0,0,0-.09.28" fill="#2d2d5a"/><path d="M13.66,105.6l-2.83-1c.06-.17.12-.33.19-.5l2.75,1.22c0,.09-.08.19-.11.28" fill="#2c2c58"/><path d="M13.77,105.32,11,104.1c.08-.16.16-.33.25-.49l2.63,1.44c-.05.09-.09.18-.13.27" fill="#2b2b56"/><path d="M13.9,105.05l-2.63-1.44c.09-.16.18-.32.28-.47l2.51,1.65a2.26,2.26,0,0,0-.16.26" fill="#2a2a54"/><path d="M14.06,104.79l-2.51-1.65c.11-.16.22-.32.34-.47l2.36,1.86a2.48,2.48,0,0,0-.19.26" fill="#292952"/><path d="M14.25,104.53l-2.36-1.86.38-.45,2.19,2.06a2.52,2.52,0,0,0-.21.25" fill="#282850"/><path d="M14.46,104.28l-2.19-2.06a5.77,5.77,0,0,1,.44-.42l2,2.24-.25.24" fill="#27274e"/><path d="M14.71,104l-2-2.24a6.4,6.4,0,0,1,.5-.41L15,103.82a2.88,2.88,0,0,0-.27.22" fill="#26264b"/><path d="M15,103.82l-1.77-2.43c.18-.13.37-.25.57-.37l1.52,2.59a2.2,2.2,0,0,0-.32.21" fill="#252549"/><path d="M15.3,103.61,13.78,101a6.42,6.42,0,0,1,.64-.33l1.23,2.74a2.31,2.31,0,0,0-.35.18" fill="#242447"/><path d="M15.65,103.43l-1.23-2.74a6.46,6.46,0,0,1,.73-.28l.91,2.86a2.9,2.9,0,0,0-.41.16" fill="#232345"/><path d="M16.06,103.27l-.91-2.86a6,6,0,0,1,.86-.21l.53,3a3.37,3.37,0,0,0-.48.12" fill="#222243"/><path d="M16.54,103.15l-.53-3a7,7,0,0,1,1-.1l.06,3a3.55,3.55,0,0,0-.57.05" fill="#212141"/><path d="M17.11,103.1l-.06-3h.14v3h-.08" fill="#20203f"/></g></g></g><rect x="17.19" y="103.1" width="22.05" fill="#1c1c39"/><path d="M39.24,103.1c6.53,0,10.39-.13,10.5,10.5v6.75A3.75,3.75,0,0,1,46,124.1H30.69a17.32,17.32,0,0,1-17.25-17.25,3.74,3.74,0,0,1,3.75-3.75Z" fill="#2c2c58"/></g></g><path d="M44.29,125.5H30.8a17.91,17.91,0,0,1-17.86-17.85h0a6,6,0,0,1,6-6H38.34c6.55,0,11.9,0,11.9,11.91v6a6,6,0,0,1-6,6" fill="#ccc"/><path d="M73.07,125.5h13.5a17.9,17.9,0,0,0,17.85-17.85h0a6,6,0,0,0-6-6H79c-6.55,0-11.91,0-11.91,11.91v6A6,6,0,0,0,73.07,125.5Z" fill="#ccc"/><polygon id="17410cd6-188e-4351-b504-e7f15360cd0e" data-name="right-arrow" points="93.27 113.6 78.27 107.6 78.27 119.6 93.27 113.6" fill="#333" stroke="#333" stroke-miterlimit="10"/><polygon id="d3897691-acba-416d-bf3c-1aa2b9c999df" data-name="left-arrow" points="24.09 113.6 39.09 107.6 39.09 119.6 24.09 113.6" fill="#333" stroke="#333" stroke-miterlimit="10"/><g id="3758ac0a-c0b9-4c1e-88d4-17783b46e637" data-name="strip-shadow"><g style="isolation:isolate"><rect x="50.22" y="132.5" width="14" fill="#1c1c39"/><polygon points="64.22 138.5 67.22 141.5 47.22 141.5 50.22 138.5 64.22 138.5" fill="#2f2f5e"/><polygon points="50.22 138.5 47.22 141.5 47.22 129.5 50.22 132.5 50.22 138.5" fill="#303060"/><polygon points="64.22 132.5 67.22 129.5 67.22 141.5 64.22 138.5 64.22 132.5" fill="#224"/><polygon points="50.22 132.5 47.22 129.5 67.22 129.5 64.22 132.5 50.22 132.5" fill="#232346"/><rect x="47.22" y="129.5" width="20" fill="#1c1c39"/><rect x="50.22" y="132.5" width="14" height="6" fill="#2c2c58"/><rect x="50.22" y="132.5" width="14" fill="#1c1c39"/></g></g><text transform="translate(16.94 30.5)" font-size="18" font-family="Courier, Courier" letter-spacing="0.05em">GLUCOSE</text><text transform="translate(76.74 63.17)" font-size="12" font-family="Courier, Courier" letter-spacing="0.07em">mg/<tspan x="4.05" y="14.4">dL</tspan></text><g id="7d1f6a2b-30e8-40c8-a428-e1b7c6f4d26c" data-name="test strip"><path id="4a4eeefc-2609-44f1-8b15-3a58e73a2cad" data-name="test-strip" d="M65.22,217.5h-16v-86h16Z" fill="#ccc"/><rect id="18f3a025-e137-4a39-842e-7b6b3caaa099" data-name="dip-strip" x="55.22" y="207.5" width="4" height="10" fill="#999"/></g><g id="85199803-7245-46ef-a9b2-60ed3e6ec5af" data-name="left-screen-shadow"><image width="13" height="82" transform="translate(5.22 7.5)" opacity="0.9" xlink:href="glucose-meter22.png" style="mix-blend-mode:multiply"/><line x1="11.72" y1="13.63" x2="11.72" y2="82.53" fill="url(#47822125-825b-4f49-8cd5-41bb14f913f5)"/><line x1="11.72" y1="13.63" x2="11.72" y2="82.53" fill="none" stroke="#999" stroke-miterlimit="10" stroke-width="0.25"/></g></g></g></g></svg>